<svg width="244" height="52" viewBox="0 0 244 52" fill="none" xmlns="http://www.w3.org/2000/svg">
<g style="mix-blend-mode:exclusion">
<path fill-rule="evenodd" clip-rule="evenodd" d="M10.2314 31.1265L7.86333 35.6129L7.90327 50.6628L0.203303 50.6835L0.0732635 1.68365L7.77324 1.66301L7.8299 23.0129L17.8532 1.63599L25.5532 1.61534L14.9012 23.484L25.6832 50.6152L17.7732 50.6364L10.2314 31.1265ZM36.5233 39.3161C36.528 41.0894 36.8929 42.3368 37.6182 43.0581C38.3435 43.7795 39.3127 44.1386 40.5261 44.1354C41.7394 44.1321 42.7068 43.7678 43.4282 43.0426C44.1496 42.3173 44.5079 41.068 44.5032 39.2947L44.433 12.8348C44.4283 11.0614 44.0633 9.81409 43.3381 9.09269C42.6128 8.37129 41.6435 8.01223 40.4302 8.01548C39.2169 8.01873 38.2495 8.38299 37.5281 9.10827C36.8067 9.83354 36.4483 11.0828 36.453 12.8562L36.5233 39.3161ZM28.7544 13.3668C28.7438 9.40013 29.7391 6.35248 31.7401 4.22377C33.7412 2.09505 36.6316 1.02564 40.4116 1.01551C44.1916 1.00537 47.0877 2.05927 49.1001 4.17722C51.1124 6.29518 52.1238 9.33745 52.1343 13.3041L52.2019 38.784C52.2124 42.7507 51.2172 45.7984 49.2162 47.9271C47.2151 50.0558 44.3246 51.1252 40.5446 51.1353C36.7646 51.1455 33.8685 50.0916 31.8562 47.9736C29.8439 45.8557 28.8325 42.8134 28.822 38.8467L28.7544 13.3668ZM64.7589 15.0203L64.8531 50.5102L57.9231 50.5287L57.7931 1.52891L67.453 1.50301L75.4408 30.8117L75.363 1.4818L82.223 1.46341L82.353 50.4632L74.443 50.4844L64.7589 15.0203ZM87.5942 13.2091C87.5836 9.24238 88.5205 6.19489 90.4049 4.06649C92.2893 1.93808 95.1214 0.86883 98.9014 0.858696C102.681 0.848562 105.519 1.90261 107.415 4.02088C109.31 6.13915 110.264 9.18158 110.274 13.1482L110.278 14.6882L102.998 14.7078L102.993 12.6778C102.988 10.9044 102.646 9.65702 101.968 8.9355C101.289 8.21398 100.343 7.85486 99.13 7.85811C97.9167 7.86136 96.9726 8.22556 96.2979 8.95071C95.6231 9.67585 95.2881 10.9251 95.2928 12.6984C95.2973 14.3784 95.6745 15.8591 96.4246 17.1404C97.1747 18.4217 98.1112 19.6325 99.2343 20.7729C100.357 21.9132 101.562 23.0533 102.848 24.1932C104.135 25.3331 105.34 26.5782 106.463 27.9285C107.587 29.2789 108.524 30.8163 109.276 32.541C110.027 34.2657 110.405 36.2946 110.412 38.628C110.422 42.5946 109.462 45.6422 107.531 47.7707C105.6 49.8993 102.744 50.9686 98.9644 50.9787C95.1844 50.9888 92.3233 49.9349 90.381 47.8167C88.4387 45.6986 87.4623 42.6562 87.4518 38.6895L87.4438 35.6795L94.7238 35.66L94.7331 39.16C94.7378 40.9333 95.1027 42.169 95.8279 42.8671C96.5531 43.5651 97.5223 43.9125 98.7357 43.9093C99.949 43.906 100.916 43.5535 101.638 42.8515C102.359 42.1496 102.718 40.912 102.713 39.1386C102.709 37.4586 102.331 35.978 101.581 34.6966C100.831 33.4153 99.8946 32.2045 98.7716 31.0642C97.6485 29.9238 96.4439 28.7837 95.1575 27.6438C93.8711 26.5039 92.6662 25.2588 91.5426 23.9085C90.419 22.5582 89.4816 21.0207 88.7303 19.296C87.9791 17.5714 87.6004 15.5424 87.5942 13.2091ZM113.273 1.38017L137.073 1.31636L137.091 8.31634L129.041 8.33792L129.153 50.3378L121.453 50.3584L121.341 8.35856L113.291 8.38014L113.273 1.38017ZM157.453 50.2619C157.358 49.9355 157.264 49.6324 157.17 49.3526C157.076 49.0729 156.994 48.7231 156.922 48.3033C156.851 47.8835 156.803 47.3469 156.778 46.6937C156.753 46.0404 156.739 45.2238 156.737 44.2438L156.716 36.5438C156.71 34.2571 156.309 32.6482 155.513 31.717C154.718 30.7858 153.433 30.3226 151.66 30.3273L149 30.3345L149.053 50.2844L141.353 50.305L141.223 1.30521L152.843 1.27406C156.856 1.2633 159.763 2.18883 161.565 4.05068C163.367 5.91253 164.272 8.73342 164.282 12.5134L164.293 16.3634C164.306 21.4034 162.635 24.7212 159.279 26.3169C161.241 27.105 162.586 28.3964 163.314 30.1911C164.042 31.9858 164.41 34.1665 164.417 36.7332L164.437 44.2931C164.44 45.5065 164.49 46.568 164.585 47.4777C164.681 48.3875 164.917 49.3085 165.293 50.2409L157.453 50.2619ZM148.941 8.28457L148.981 23.3345L151.991 23.3264C153.438 23.3226 154.569 22.9462 155.383 22.1973C156.198 21.4485 156.603 20.0941 156.597 18.1341L156.585 13.3041C156.58 11.5308 156.262 10.2483 155.629 9.45664C154.997 8.66499 154.005 8.27099 152.651 8.27462L148.941 8.28457ZM177.503 1.20797L177.603 39.0078C177.608 40.7812 177.973 42.0169 178.698 42.7149C179.423 43.413 180.392 43.7604 181.606 43.7571C182.819 43.7539 183.786 43.4013 184.508 42.6993C185.229 41.9974 185.588 40.7598 185.583 38.9864L185.483 1.18657L192.763 1.16706L192.862 38.4769C192.872 42.4436 191.912 45.4912 189.981 47.6197C188.05 49.7482 185.194 50.8175 181.414 50.8277C177.634 50.8378 174.773 49.7838 172.831 47.6657C170.889 45.5475 169.912 42.5052 169.902 38.5385L169.803 1.22861L177.503 1.20797ZM219.842 1.09446L243.642 1.03065L243.661 8.03062L235.611 8.05221L235.722 50.0521L228.022 50.0727L227.911 8.07285L219.861 8.09443L219.842 1.09446Z" fill="#1A1A1A"/>
</g>
</svg>
